<svg width="291" height="62" viewBox="0 0 291 62" fill="none" xmlns="http://www.w3.org/2000/svg">
<path d="M47.736 53.12C47.928 53.856 47.816 54.528 47.4 55.136C46.984 55.712 46.392 56 45.624 56H44.232C43.784 56 43.352 55.856 42.936 55.568C42.552 55.28 42.28 54.928 42.12 54.512L40.296 48.992C40.168 48.576 39.896 48.368 39.48 48.368H31.272C30.856 48.368 30.584 48.576 30.456 48.992L28.632 54.512C28.472 54.928 28.2 55.28 27.816 55.568C27.432 55.856 27 56 26.52 56H25.128C24.36 56 23.768 55.712 23.352 55.136C22.904 54.496 22.808 53.824 23.064 53.12L32.376 25.04C32.536 24.592 32.792 24.24 33.144 23.984C33.528 23.696 33.944 23.552 34.392 23.552H36.36C36.808 23.552 37.224 23.696 37.608 23.984C37.992 24.24 38.248 24.592 38.376 25.04L47.736 53.12ZM38.04 42.08L35.64 34.736C35.48 34.512 35.304 34.512 35.112 34.736L32.712 42.08C32.648 42.24 32.664 42.384 32.76 42.512C32.856 42.64 32.984 42.704 33.144 42.704H37.608C37.768 42.704 37.896 42.64 37.992 42.512C38.088 42.384 38.104 42.24 38.04 42.08ZM70.3688 24.656C70.7528 25.392 70.7368 26.144 70.3208 26.912L61.3448 41.504C61.2168 41.664 61.1528 41.936 61.1528 42.32V53.792C61.1528 54.4 60.9288 54.928 60.4808 55.376C60.0648 55.792 59.5528 56 58.9448 56H57.6008C56.9928 56 56.4648 55.792 56.0168 55.376C55.6008 54.928 55.3928 54.4 55.3928 53.792V42.272C55.3928 41.92 55.3128 41.664 55.1528 41.504L46.2248 26.912C45.8088 26.112 45.7928 25.376 46.1768 24.704C46.5928 23.936 47.2328 23.552 48.0968 23.552H49.6328C50.4968 23.552 51.1368 23.904 51.5528 24.608C51.9048 25.152 52.4328 26.016 53.1368 27.2C53.8408 28.384 54.6248 29.68 55.4888 31.088C56.3528 32.464 57.1688 33.776 57.9368 35.024C58.0008 35.152 58.0968 35.216 58.2248 35.216C58.3848 35.216 58.5128 35.152 58.6088 35.024C59.4728 33.616 60.3208 32.24 61.1528 30.896C61.9848 29.52 62.7368 28.288 63.4088 27.2C64.1128 26.08 64.6408 25.216 64.9928 24.608C65.4088 23.904 66.0328 23.552 66.8648 23.552H68.4008C69.2968 23.552 69.9528 23.92 70.3688 24.656Z" fill="#E1932E"/>
<path d="M17.01 28.616L18.468 30.938L5.76 38.732L18.468 46.598L16.848 48.812L3.168 40.262V37.166L17.01 28.616Z" fill="white"/>
<path d="M80.08 45.912C81.52 45.912 82.66 45.636 83.5 45.084C84.34 44.532 84.76 43.8 84.76 42.888C84.76 42.264 84.652 41.76 84.436 41.376C84.22 40.968 83.788 40.608 83.14 40.296C82.492 39.96 81.508 39.624 80.188 39.288C77.98 38.736 76.348 38.076 75.292 37.308C74.236 36.516 73.708 35.352 73.708 33.816C73.708 32.232 74.368 30.972 75.688 30.036C77.008 29.1 78.748 28.632 80.908 28.632C83.548 28.632 85.852 29.328 87.82 30.72L86.452 32.808C85.66 32.256 84.832 31.836 83.968 31.548C83.104 31.236 82.108 31.08 80.98 31.08C78.244 31.08 76.876 31.908 76.876 33.564C76.876 34.14 77.02 34.608 77.308 34.968C77.62 35.328 78.112 35.652 78.784 35.94C79.48 36.204 80.512 36.528 81.88 36.912C83.944 37.464 85.48 38.172 86.488 39.036C87.52 39.876 88.036 41.112 88.036 42.744C88.036 44.64 87.268 46.056 85.732 46.992C84.196 47.928 82.312 48.396 80.08 48.396C77.104 48.396 74.632 47.544 72.664 45.84L74.356 43.86C75.124 44.484 76 44.988 76.984 45.372C77.968 45.732 79 45.912 80.08 45.912ZM102.422 28.632C105.038 28.632 107.042 29.52 108.434 31.296C109.85 33.048 110.558 35.448 110.558 38.496C110.558 41.472 109.838 43.872 108.398 45.696C106.982 47.496 104.978 48.396 102.386 48.396C99.7699 48.396 97.7539 47.52 96.3379 45.768C94.9219 43.992 94.2139 41.58 94.2139 38.532C94.2139 35.532 94.9219 33.132 96.3379 31.332C97.7779 29.532 99.8059 28.632 102.422 28.632ZM102.422 31.116C100.766 31.116 99.5299 31.728 98.7139 32.952C97.8979 34.176 97.4899 36.036 97.4899 38.532C97.4899 41.028 97.8859 42.888 98.6779 44.112C99.4939 45.312 100.73 45.912 102.386 45.912C104.042 45.912 105.266 45.312 106.058 44.112C106.874 42.888 107.282 41.016 107.282 38.496C107.282 36 106.874 34.152 106.058 32.952C105.266 31.728 104.054 31.116 102.422 31.116ZM127.968 21.036C129.768 21.036 131.484 21.372 133.116 22.044L132.144 24.312C130.944 23.784 129.588 23.52 128.076 23.52C125.436 23.52 124.116 24.564 124.116 26.652V30.504H130.524L130.2 32.916H124.116V48H121.056V32.916H116.556V30.504H121.056V26.724C121.056 25.02 121.704 23.652 123 22.62C124.32 21.564 125.976 21.036 127.968 21.036ZM153.442 47.028C152.794 47.46 152.002 47.796 151.066 48.036C150.154 48.276 149.242 48.396 148.33 48.396C146.338 48.396 144.778 47.88 143.65 46.848C142.522 45.792 141.958 44.412 141.958 42.708V31.404H137.602V29.028H141.958V24.744L144.982 24.384V29.028H151.57L151.174 31.404H144.982V42.672C144.982 43.752 145.27 44.556 145.846 45.084C146.422 45.612 147.346 45.876 148.618 45.876C149.914 45.876 151.126 45.576 152.254 44.976L153.442 47.028ZM169.736 48L167.252 34.104L164.588 48H160.412L156.992 29.028H160.052L162.5 46.128L165.524 31.44H169.088L171.932 46.128L174.38 29.028H177.296L174.02 48H169.736ZM195.138 43.86C195.138 44.604 195.258 45.156 195.498 45.516C195.738 45.852 196.134 46.104 196.686 46.272L195.93 48.432C194.082 48.192 192.93 47.292 192.474 45.732C191.802 46.596 190.95 47.256 189.918 47.712C188.91 48.168 187.782 48.396 186.534 48.396C184.638 48.396 183.138 47.868 182.034 46.812C180.954 45.756 180.414 44.34 180.414 42.564C180.414 40.62 181.17 39.12 182.682 38.064C184.218 37.008 186.414 36.48 189.27 36.48H192.078V34.932C192.078 33.588 191.694 32.628 190.926 32.052C190.158 31.452 189.042 31.152 187.578 31.152C186.138 31.152 184.494 31.476 182.646 32.124L181.818 29.82C184.05 29.028 186.126 28.632 188.046 28.632C190.35 28.632 192.102 29.172 193.302 30.252C194.526 31.332 195.138 32.832 195.138 34.752V43.86ZM187.29 46.128C188.226 46.128 189.114 45.888 189.954 45.408C190.818 44.928 191.526 44.268 192.078 43.428V38.568H189.342C187.326 38.568 185.874 38.904 184.986 39.576C184.098 40.248 183.654 41.232 183.654 42.528C183.654 44.928 184.866 46.128 187.29 46.128ZM215.932 28.632C216.7 28.632 217.588 28.764 218.596 29.028L218.164 35.472H215.716V31.404H215.536C212.608 31.404 210.532 33.492 209.308 37.668V45.66H213.16V48H203.296V45.66H206.284V31.368H203.296V29.028H208.552L209.128 33.528C209.896 31.896 210.808 30.672 211.864 29.856C212.944 29.04 214.3 28.632 215.932 28.632ZM227.114 39.576C227.186 41.664 227.726 43.236 228.734 44.292C229.766 45.348 231.062 45.876 232.622 45.876C233.558 45.876 234.41 45.744 235.178 45.48C235.97 45.192 236.81 44.76 237.698 44.184L239.102 46.2C238.214 46.896 237.194 47.436 236.042 47.82C234.914 48.204 233.774 48.396 232.622 48.396C229.886 48.396 227.75 47.508 226.214 45.732C224.702 43.932 223.946 41.532 223.946 38.532C223.946 36.636 224.282 34.944 224.954 33.456C225.626 31.944 226.586 30.768 227.834 29.928C229.082 29.064 230.534 28.632 232.19 28.632C234.59 28.632 236.474 29.472 237.842 31.152C239.234 32.808 239.93 35.076 239.93 37.956C239.93 38.508 239.906 39.048 239.858 39.576H227.114ZM232.226 31.116C230.762 31.116 229.574 31.644 228.662 32.7C227.75 33.732 227.234 35.256 227.114 37.272H236.978C236.954 35.28 236.522 33.756 235.682 32.7C234.842 31.644 233.69 31.116 232.226 31.116ZM244.596 50.628L259.968 18.876L262.38 20.028L247.044 51.708L244.596 50.628ZM282.741 35.184V38.28L269.061 46.812L267.441 44.58L280.149 36.732L267.441 28.92L268.917 26.616L282.741 35.184Z" fill="white"/>
</svg>
