<svg width="825" height="214" viewBox="0 0 825 214" fill="none" xmlns="http://www.w3.org/2000/svg">
<path fill-rule="evenodd" clip-rule="evenodd" d="M63.1539 150.903L101.6 0H133.296C138.111 0 142.242 3.43034 143.126 8.16266L181.6 214H171.6L146.1 78.5H93.6004L72.601 153.43C72.0094 155.541 70.0849 157 67.8925 157C64.7021 157 62.3662 153.994 63.1539 150.903ZM191.6 82.5V157H201.6V82.5L231.6 0H221.6L196.6 71.5L171.6 0H161.6L191.6 82.5ZM96.6004 64H142.6L134.1 15H108.1L96.6004 64Z" fill="#E1932E"/>
<path d="M45.36 37.976L49.248 44.168L15.36 64.952L49.248 85.928L44.928 91.832L8.448 69.032V60.776L45.36 37.976Z" fill="white"/>
<path d="M764.498 29.048L815.811 60.776V69.032L779.379 91.832L775.011 85.88L808.899 64.952L760.61 35.144L764.498 29.048ZM730.13 104.888L723.602 102.008L764.69 17.288L771.123 20.456L730.13 104.888Z" fill="white"/>
<path d="M258.832 89.432C262.704 89.432 265.76 88.712 268 87.272C270.272 85.8 271.408 83.848 271.408 81.416C271.408 79.88 271.12 78.552 270.544 77.432C270 76.312 268.864 75.304 267.136 74.408C265.408 73.512 262.752 72.616 259.168 71.72C255.68 70.856 252.64 69.864 250.048 68.744C247.488 67.592 245.488 66.104 244.048 64.28C242.64 62.456 241.936 60.088 241.936 57.176C241.936 54.328 242.736 51.88 244.336 49.832C245.968 47.752 248.224 46.168 251.104 45.08C253.984 43.96 257.328 43.4 261.136 43.4C265.2 43.4 268.736 43.944 271.744 45.032C274.784 46.088 277.36 47.4 279.472 48.968L275.92 54.44C274 53.128 271.888 52.056 269.584 51.224C267.28 50.36 264.496 49.928 261.232 49.928C257.264 49.928 254.448 50.552 252.784 51.8C251.12 53.016 250.288 54.6 250.288 56.552C250.288 58.024 250.688 59.256 251.488 60.248C252.32 61.208 253.712 62.088 255.664 62.888C257.616 63.656 260.304 64.504 263.728 65.432C267.024 66.296 269.888 67.336 272.32 68.552C274.784 69.768 276.704 71.368 278.08 73.352C279.456 75.336 280.144 77.896 280.144 81.032C280.144 84.616 279.12 87.528 277.072 89.768C275.024 91.976 272.368 93.592 269.104 94.616C265.872 95.608 262.448 96.104 258.832 96.104C254.256 96.104 250.352 95.448 247.12 94.136C243.92 92.792 241.232 91.176 239.056 89.288L243.664 83.96C245.648 85.592 247.92 86.92 250.48 87.944C253.072 88.936 255.856 89.432 258.832 89.432ZM318.459 43.4C323.227 43.4 327.211 44.488 330.411 46.664C333.643 48.808 336.059 51.848 337.659 55.784C339.291 59.72 340.107 64.36 340.107 69.704C340.107 74.856 339.275 79.416 337.611 83.384C335.947 87.352 333.499 90.472 330.267 92.744C327.067 94.984 323.099 96.104 318.363 96.104C313.627 96.104 309.643 95.016 306.411 92.84C303.179 90.664 300.731 87.608 299.067 83.672C297.435 79.704 296.618 75.08 296.618 69.8C296.618 64.584 297.451 59.992 299.115 56.024C300.779 52.056 303.227 48.968 306.459 46.76C309.723 44.52 313.723 43.4 318.459 43.4ZM318.459 49.976C314.107 49.976 310.811 51.592 308.571 54.824C306.363 58.024 305.259 63.016 305.259 69.8C305.259 76.456 306.347 81.4 308.523 84.632C310.731 87.864 314.011 89.48 318.363 89.48C322.715 89.48 325.979 87.864 328.155 84.632C330.363 81.4 331.467 76.424 331.467 69.704C331.467 62.984 330.379 58.024 328.203 54.824C326.027 51.592 322.779 49.976 318.459 49.976ZM386.629 23.096C389.349 23.096 391.813 23.336 394.021 23.816C396.229 24.296 398.325 24.968 400.309 25.832L397.717 31.832C396.085 31.128 394.357 30.6 392.533 30.248C390.709 29.896 388.821 29.72 386.869 29.72C383.349 29.72 380.693 30.408 378.901 31.784C377.141 33.16 376.261 35.272 376.261 38.12V48.392H393.397L392.533 54.728H376.261V95H368.197V54.728H356.149V48.392H368.197V38.312C368.197 35.176 368.997 32.472 370.597 30.2C372.229 27.928 374.437 26.184 377.221 24.968C380.005 23.72 383.141 23.096 386.629 23.096ZM454.464 92.456C452.736 93.608 450.64 94.504 448.176 95.144C445.712 95.784 443.296 96.104 440.928 96.104C435.488 96.104 431.296 94.68 428.352 91.832C425.408 88.984 423.936 85.32 423.936 80.84V50.696H412.32V44.456H423.936V32.984L432 32.024V44.456H449.472L448.512 50.696H432V80.744C432 83.56 432.736 85.704 434.208 87.176C435.712 88.648 438.192 89.384 441.648 89.384C443.536 89.384 445.28 89.16 446.88 88.712C448.48 88.264 449.968 87.688 451.344 86.984L454.464 92.456ZM509.338 95H497.914L491.386 57.896L484.282 95H473.146L463.93 44.456H472.186L478.618 90.008L486.682 50.888H496.234L503.866 90.008L510.298 44.456H518.17L509.338 95ZM565.653 83.96C565.653 85.976 565.989 87.448 566.661 88.376C567.333 89.304 568.373 89.992 569.781 90.44L567.812 96.104C565.637 95.816 563.733 95.128 562.101 94.04C560.469 92.92 559.285 91.24 558.549 89C556.725 91.336 554.453 93.112 551.733 94.328C549.013 95.512 546.005 96.104 542.709 96.104C537.653 96.104 533.669 94.68 530.757 91.832C527.845 88.984 526.389 85.208 526.389 80.504C526.389 75.288 528.421 71.288 532.484 68.504C536.549 65.72 542.421 64.328 550.101 64.328H557.541V60.104C557.541 56.456 556.469 53.88 554.325 52.376C552.213 50.84 549.269 50.072 545.493 50.072C543.829 50.072 541.877 50.28 539.637 50.696C537.397 51.08 534.965 51.736 532.341 52.664L530.229 46.568C533.333 45.416 536.245 44.6 538.965 44.12C541.685 43.64 544.277 43.4 546.741 43.4C553.045 43.4 557.765 44.872 560.901 47.816C564.069 50.728 565.653 54.696 565.653 59.72V83.96ZM544.773 89.96C547.269 89.96 549.653 89.336 551.925 88.088C554.197 86.808 556.069 85.048 557.541 82.808V69.8H550.245C544.677 69.8 540.741 70.76 538.437 72.68C536.165 74.6 535.029 77.176 535.029 80.408C535.029 83.544 535.829 85.928 537.429 87.56C539.061 89.16 541.509 89.96 544.773 89.96ZM587.503 95V88.808H595.375V50.648H587.503V44.456H601.519L603.007 56.408C604.959 52.248 607.327 49.032 610.111 46.76C612.895 44.488 616.575 43.352 621.151 43.352C622.559 43.352 623.807 43.464 624.895 43.688C626.015 43.88 627.151 44.136 628.303 44.456L625.951 51.656C624.895 51.368 623.935 51.16 623.071 51.032C622.207 50.872 621.215 50.792 620.095 50.792C616.223 50.792 612.895 52.168 610.111 54.92C607.327 57.672 605.103 61.832 603.439 67.4V88.808H613.711V95H587.503ZM620.527 61.544V50.552L621.343 44.456H628.303L627.151 61.544H620.527ZM650.922 72.584C651.082 76.488 651.834 79.688 653.178 82.184C654.522 84.648 656.298 86.472 658.506 87.656C660.714 88.808 663.114 89.384 665.706 89.384C668.298 89.384 670.634 89 672.714 88.232C674.826 87.464 676.986 86.328 679.194 84.824L682.986 90.152C680.618 92.008 677.914 93.464 674.874 94.52C671.866 95.576 668.778 96.104 665.61 96.104C660.714 96.104 656.538 95 653.082 92.792C649.626 90.584 646.986 87.512 645.162 83.576C643.37 79.608 642.474 75.016 642.474 69.8C642.474 64.68 643.386 60.136 645.21 56.168C647.034 52.2 649.594 49.08 652.89 46.808C656.186 44.536 660.074 43.4 664.554 43.4C668.81 43.4 672.474 44.408 675.546 46.424C678.618 48.408 680.97 51.256 682.602 54.968C684.266 58.648 685.098 63.048 685.098 68.168C685.098 69.032 685.082 69.848 685.05 70.616C685.018 71.352 684.97 72.008 684.906 72.584H650.922ZM664.65 50.024C660.906 50.024 657.77 51.352 655.242 54.008C652.746 56.664 651.322 60.776 650.97 66.344H677.322C677.226 60.936 676.042 56.872 673.77 54.152C671.498 51.4 668.458 50.024 664.65 50.024Z" fill="white"/>
</svg>
